<?xml version="1.0" encoding="utf-8"?>
<!-- Generator: Adobe Illustrator 28.2.0, SVG Export Plug-In . SVG Version: 6.00 Build 0)  -->
<svg version="1.1" id="Layer_1" xmlns="http://www.w3.org/2000/svg" xmlns:xlink="http://www.w3.org/1999/xlink" x="0px" y="0px"
	 viewBox="0 0 57.9 24.9" style="enable-background:new 0 0 57.9 24.9;" xml:space="preserve">
<style type="text/css">
	.st0{fill:#FFFFFF;}
</style>
<path class="st0" d="M35.5,24.9c-1.9,0-3.6-1.1-4.4-2.9c-1.9-4.3-6.2-7-10.9-7s-9,2.8-10.9,7c-0.8,1.7-2.5,2.9-4.4,2.9
	c-2.7,0-4.8-2.2-4.8-4.8c0-2.4,1.8-4.4,4.1-4.8c5.5-0.8,9.7-5.3,10.1-10.9C14.4,2,16.5,0,19,0c2.5,0,4.6,1.9,4.8,4.4
	c0.6,6.1,5.6,10.8,11.7,10.9c0.1,0,0.1,0,0.2,0c0.2,0,0.4,0,0.6,0c6.2,0,11.3-4.7,11.9-10.9C48.5,1.9,50.6,0,53.1,0
	c2.7,0,4.8,2.2,4.8,4.8s-2.2,4.8-4.8,4.8c-0.1,0-0.2,0-0.2,0c-0.2,0-0.4,0-0.6,0c-6.2,0-11.3,4.7-11.9,10.9
	C40.1,23,38,24.9,35.5,24.9z"/>
</svg>
