<svg width="265" height="150" viewBox="0 0 265 150" fill="none" xmlns="http://www.w3.org/2000/svg">
<g filter="url(#filter0_d_143_465)">
<rect x="2" y="1" width="261" height="146" rx="6" fill="#333F51"/>
</g>
<g clip-path="url(#clip0_143_465)">
<path d="M84.4592 54.5161C84.7137 54.6057 84.9353 54.7696 85.0956 54.9866C85.2559 55.2035 85.3474 55.4636 85.3582 55.7331C85.4964 57.1725 85.5554 58.6183 85.5347 60.0641C85.5195 60.7274 85.5043 61.3907 85.4601 62.0539C85.2107 61.9505 84.9749 61.847 84.7239 61.7497C84.091 61.5002 83.4719 61.2644 82.8376 61.0423C82.8528 60.7046 82.868 60.3806 82.868 60.0413C82.8817 58.9658 82.8528 57.8751 82.7645 56.7706C81.7331 56.4466 80.6576 56.1515 79.5699 55.8868C78.2008 55.5628 76.8316 55.2966 75.4443 55.1049C74.6639 55.003 73.9124 54.9132 73.1913 54.8402C72.4702 54.7672 71.702 54.723 70.9216 54.688C70.3131 54.6728 69.7426 54.6591 69.125 54.6591L68.226 54.6728C67.9598 54.6728 67.6509 54.688 67.3269 54.688C66.5465 54.7185 65.795 54.7763 65.0572 54.8402C64.3194 54.9041 63.5846 55.003 62.8042 55.1049C61.4351 55.2966 60.0492 55.5612 58.6786 55.8868C57.5878 56.1515 56.5275 56.4466 55.4839 56.7706C55.3044 59.1923 55.3687 61.6258 55.6757 64.0346C55.8386 65.3821 56.0747 66.7197 56.383 68.0416C56.5595 68.7931 56.7664 69.5446 56.9915 70.2656L57.0068 70.325L57.0204 70.3843L57.0357 70.4436L57.0645 70.5014L57.0798 70.5608L57.0949 70.6201L57.1102 70.6794L57.1679 70.8407V70.8559L57.1832 70.9137L57.2866 71.1936L57.3003 71.2529L57.3901 71.4887L57.4038 71.5329C57.8588 72.8521 58.3854 74.1456 58.9813 75.4075L59.0102 75.4516L59.0255 75.4972L59.0391 75.5261L59.0695 75.5703L59.0832 75.6144L59.0985 75.6585L59.1274 75.6874C59.3495 76.1437 59.5838 76.6001 59.8211 77.0565C59.9975 77.3516 60.1587 77.665 60.3215 77.9404C60.5132 78.2801 60.6902 78.5747 60.8524 78.8242C61.3529 79.635 61.8823 80.4306 62.4437 81.1974C63.005 81.9641 63.577 82.7003 64.2114 83.4366C64.4477 83.7165 64.7129 84.0111 65.007 84.3205C65.2869 84.6247 65.5516 84.929 65.8026 85.1891C66.4506 85.8524 67.1276 86.4867 67.8061 87.1044L68.086 87.3402C67.8943 87.4923 67.7027 87.6444 67.4973 87.7965C66.9664 88.1936 66.4217 88.5769 65.8756 88.9603C62.932 86.3214 60.3994 83.2572 58.3621 79.8693V79.8541L58.3469 79.8404L58.3318 79.8252C58.2146 79.6335 58.1111 79.4418 58.0077 79.2806C57.8312 78.9565 57.6395 78.631 57.4783 78.3222C56.9915 77.4383 56.5489 76.5256 56.1229 75.5672C55.697 74.6088 55.3273 73.6672 54.9881 72.724C54.5142 71.3907 54.1109 70.0334 53.7801 68.6577C52.7793 64.425 52.4807 60.0566 52.8963 55.7271C52.9088 55.4571 53.0026 55.1973 53.1655 54.9817C53.3284 54.7661 53.5528 54.6049 53.8091 54.5192C55.2086 54.0476 56.6386 53.6353 58.0823 53.2809C59.497 52.9569 60.9544 52.6724 62.4437 52.4564C63.2043 52.3529 64.0045 52.2647 64.8442 52.1917C65.6551 52.1171 66.4507 52.0593 67.2311 52.0289C67.5262 52.0289 67.8395 52.0137 68.1742 52.0137L69.1326 52L70.0895 52.0137C70.4287 52.0137 70.7527 52.0289 71.0326 52.0289C71.8283 52.0593 72.6239 52.1171 73.4347 52.1917C74.2744 52.2647 75.07 52.3529 75.8215 52.4564C77.323 52.677 78.7819 52.9569 80.1967 53.2809C81.6267 53.6353 83.0551 54.0415 84.4698 54.5192L84.4592 54.5161ZM75.8246 81.1989C76.3555 80.4474 76.8894 79.6776 77.3717 78.885C77.5381 78.5862 77.8111 78.361 78.1362 78.2544C78.4613 78.1478 78.8146 78.1677 79.1257 78.31C81.6859 79.5337 84.01 81.1997 85.9911 83.2313C86.2229 83.4449 86.372 83.7334 86.4123 84.0461C86.4527 84.3587 86.3817 84.6756 86.2117 84.9411C85.7995 85.5892 85.3431 86.2661 84.8867 86.9294C84.4303 87.5927 83.9283 88.2407 83.443 88.8599C83.0886 89.3163 82.7052 89.7878 82.2929 90.2594C81.94 90.6717 81.5415 91.1281 81.1003 91.6149C80.4811 92.2933 79.8833 92.911 79.2748 93.5149H79.2596C78.6708 94.1052 78.0426 94.6802 77.3885 95.2537C77.1955 95.4417 76.9506 95.5675 76.6854 95.615C76.4202 95.6624 76.1468 95.6293 75.9006 95.5199C73.9614 94.6297 72.0943 93.5901 70.3161 92.4105C70.5519 92.234 70.7877 92.0576 71.0235 91.8659C71.524 91.4673 72.026 91.0703 72.4961 90.6489C73.6977 91.4126 74.9426 92.106 76.2246 92.7254C76.6217 92.3572 77.005 91.9891 77.4036 91.6057C78.0212 90.9972 78.5963 90.4131 79.1272 89.8228C79.4801 89.4547 79.8483 89.0135 80.262 88.5419C80.615 88.1145 80.9832 87.6718 81.3376 87.2017C81.8229 86.6115 82.2655 86.0075 82.693 85.3884C82.9288 85.0841 83.1494 84.7403 83.37 84.4163C82.7069 83.7805 81.9975 83.1948 81.2478 82.6638C80.5377 82.1489 79.7949 81.6809 79.0238 81.2628C78.6846 81.7785 78.3316 82.2805 77.9771 82.7658C77.3595 83.6207 76.7252 84.4163 76.0771 85.183C75.782 85.5207 75.5021 85.8311 75.2374 86.1262C75.1187 86.2783 74.9864 86.4061 74.854 86.5521L74.8388 86.5674L74.8251 86.5826L74.8099 86.5963L74.7947 86.6115L74.781 86.6267L74.7658 86.6419L74.7506 86.6556L74.7217 86.686V86.6997C73.3149 88.1815 71.8034 89.5602 70.199 90.8253C67.7745 92.687 65.1443 94.2642 62.36 95.526C62.1069 95.6395 61.825 95.6721 61.5527 95.6193C61.2804 95.5664 61.0311 95.4308 60.8388 95.2309C60.1892 94.6711 59.5853 94.096 58.9813 93.521C58.3728 92.9323 57.7735 92.304 57.1558 91.6209C56.6995 91.1341 56.3024 90.6778 55.9479 90.2655C55.5509 89.7939 55.1675 89.3223 54.7994 88.866C54.3126 88.2331 53.841 87.5988 53.3694 86.9355C52.8978 86.2722 52.4567 85.5953 52.0444 84.9472C51.7189 84.4315 51.3811 83.8823 51.0419 83.3119C50.7376 82.7521 50.4227 82.1922 50.1291 81.6385C49.7473 80.9311 49.3929 80.2085 49.0536 79.4875C48.7144 78.7664 48.4208 78.0423 48.112 77.2908C47.5522 75.9217 47.0654 74.5221 46.6379 73.0921C46.2104 71.6622 45.8575 70.22 45.573 68.7611C45.5176 68.4924 45.5475 68.2131 45.6585 67.9622C45.7695 67.7113 45.9561 67.5013 46.1921 67.3616C47.9075 66.1423 49.7151 65.0585 51.5987 64.1198C51.6717 64.8272 51.7614 65.5194 51.8786 66.2115C51.9075 66.4473 51.9516 66.6831 51.9957 66.9189C50.7453 67.5729 49.5352 68.3014 48.3721 69.1004C48.6079 70.2048 48.8878 71.2803 49.1966 72.3269C49.5952 73.6824 50.0668 75.0074 50.5825 76.2822C50.8624 76.9744 51.156 77.6665 51.48 78.3587C51.8041 79.0509 52.1296 79.7278 52.4825 80.3774C52.7624 80.9235 53.0576 81.4423 53.3527 81.9686C53.6463 82.4554 53.9612 82.9711 54.2944 83.5157C54.7081 84.1638 55.1204 84.7981 55.5478 85.3869C55.9753 85.9756 56.4317 86.6039 56.9033 87.2002C57.2714 87.6703 57.6244 88.1129 57.9925 88.5404C58.3911 89.012 58.7744 89.4532 59.1121 89.8213C59.6583 90.4116 60.2318 91.0003 60.851 91.6042C61.2343 91.9876 61.6329 92.3557 62.0147 92.7102C64.2316 91.6438 66.3345 90.3553 68.2913 88.8644C71.1593 86.6896 73.6955 84.1089 75.82 81.2034L75.8246 81.1989ZM92.0472 67.3555C92.2825 67.4968 92.4691 67.7064 92.5822 67.9564C92.6952 68.2065 92.7294 68.4851 92.6801 68.755C92.3849 70.2139 92.032 71.6576 91.6045 73.086C91.177 74.5145 90.6918 75.9156 90.1456 77.2847C90.0903 77.4213 90.0103 77.5466 89.9098 77.6544C89.6787 77.9223 89.3514 78.0886 88.9986 78.117C88.6459 78.1455 88.2961 78.0339 88.025 77.8065C87.0295 76.9399 85.9759 76.1424 84.8715 75.4196C83.7863 74.7098 82.6539 74.075 81.4821 73.5196C81.1748 73.381 80.9304 73.1324 80.7969 72.8228C80.6635 72.5132 80.6507 72.1648 80.7611 71.8462C81.2017 70.6064 81.5705 69.3422 81.8655 68.0598C81.9978 67.5593 82.1012 67.0573 82.2047 66.5386C82.5439 66.6709 82.868 66.8048 83.2072 66.9508C83.7077 67.1729 84.2082 67.4072 84.7087 67.6445C84.6356 67.9975 84.5566 68.3367 84.4729 68.6759C84.2386 69.6632 83.9724 70.6536 83.6636 71.6226C84.5764 72.0942 85.4754 72.6236 86.344 73.1834C87.0073 73.6261 87.6706 74.0961 88.3049 74.5829C88.5696 73.8467 88.8206 73.0952 89.0412 72.33C89.3652 71.2834 89.6299 70.2002 89.8809 69.1034C87.9475 67.7814 85.8897 66.6513 83.7366 65.7293C82.4105 65.1562 81.0529 64.6589 79.6703 64.24C78.4069 63.8584 77.1229 63.5486 75.8246 63.312C74.9118 63.1508 73.9686 63.0184 73.0103 62.915C72.0519 62.8115 71.1102 62.7522 70.1671 62.7233L69.6377 62.7081H68.6063L68.0906 62.7233C67.1474 62.7522 66.189 62.8115 65.2458 62.915C64.3026 63.0184 63.3458 63.1508 62.4178 63.312C61.1354 63.5478 59.8545 63.8718 58.5721 64.24C58.0853 64.3921 57.6 64.5442 57.1132 64.7116C57.0691 64.4317 57.025 64.167 56.9961 63.887C56.9078 63.2542 56.844 62.6351 56.8044 62.0007C60.7795 60.6864 64.9398 60.0187 69.1265 60.0231C74.3053 60.0302 79.4336 61.0407 84.228 62.9986C86.993 64.1508 89.6178 65.614 92.0517 67.3601L92.0472 67.3555ZM67.5003 79.0098C67.2798 78.7299 67.0881 78.4789 66.9116 78.2583C65.5097 76.339 64.3192 74.2738 63.361 72.0988C63.2287 71.8051 63.0948 71.51 62.9777 71.2149C62.8605 70.9198 62.7708 70.6703 62.6734 70.3904C62.6313 70.2931 62.6016 70.1909 62.5852 70.0861C62.5538 69.9129 62.5572 69.7351 62.5952 69.5632C62.6332 69.3912 62.7051 69.2286 62.8066 69.0848C62.9081 68.9409 63.0373 68.8187 63.1865 68.7252C63.3358 68.6318 63.5021 68.569 63.6759 68.5405C63.9558 68.4812 64.2843 68.4371 64.619 68.3884L65.5759 68.2545C66.1661 68.1967 66.7549 68.1526 67.3588 68.1024C67.9628 68.0522 68.5758 68.0583 69.128 68.0583C69.6802 68.0583 70.2766 68.072 70.9094 68.1024C71.5179 68.1465 72.1036 68.1907 72.6787 68.2545L73.6355 68.3884C73.9899 68.4325 74.2988 68.4767 74.5939 68.5405C74.6691 68.5527 74.743 68.572 74.8144 68.5984C75.1479 68.7187 75.4202 68.966 75.5721 69.2863C75.724 69.6066 75.7431 69.9739 75.6253 70.3082C75.5066 70.6125 75.3895 70.9259 75.2708 71.221C75.1522 71.5161 75.035 71.8112 74.9027 72.1048C74.4241 73.189 73.8878 74.2467 73.2962 75.2736C72.7019 76.3078 72.0477 77.3065 71.3369 78.2644C71.1158 78.5575 70.9246 78.808 70.7634 79.0159C70.5124 79.3201 70.3207 79.5757 70.1549 79.7522C70.103 79.818 70.0432 79.8773 69.9769 79.9286C69.8431 80.0414 69.6882 80.1263 69.5212 80.1785C69.3542 80.2308 69.1785 80.2492 69.0044 80.2328C68.8302 80.2163 68.661 80.1654 68.5067 80.0829C68.3524 80.0003 68.2161 79.8879 68.1058 79.7522C67.8852 79.5012 67.6935 79.2654 67.4973 79.0159L67.5003 79.0098Z" fill="#38CEC9"/>
</g>
<path d="M106.99 71.1521C107.932 69.6859 109.59 68.9528 111.964 68.9528V72.0684C111.685 72.0161 111.432 71.9899 111.205 71.9899C109.931 71.9899 108.936 72.3652 108.22 73.1157C107.505 73.8488 107.147 74.9135 107.147 76.3099V83.091H103.874V69.1099H106.99V71.1521Z" fill="white"/>
<path d="M127.756 76.179C127.756 76.4059 127.738 76.7288 127.704 77.1477H116.733C116.925 78.1775 117.423 78.9979 118.226 79.6088C119.046 80.2022 120.058 80.499 121.263 80.499C122.799 80.499 124.064 79.9928 125.059 78.9804L126.813 80.9964C126.185 81.747 125.391 82.3142 124.431 82.6982C123.471 83.0822 122.389 83.2742 121.184 83.2742C119.648 83.2742 118.296 82.9688 117.126 82.3579C115.957 81.747 115.049 80.9004 114.403 79.8182C113.775 78.7186 113.461 77.4793 113.461 76.1004C113.461 74.739 113.766 73.5172 114.377 72.435C115.005 71.3353 115.869 70.4801 116.969 69.8692C118.069 69.2582 119.308 68.9528 120.687 68.9528C122.048 68.9528 123.261 69.2582 124.326 69.8692C125.408 70.4626 126.246 71.3092 126.84 72.4088C127.45 73.491 127.756 74.7477 127.756 76.179ZM120.687 71.571C119.64 71.571 118.749 71.8852 118.016 72.5135C117.301 73.1244 116.864 73.9448 116.707 74.9746H124.64C124.501 73.9622 124.073 73.1419 123.357 72.5135C122.642 71.8852 121.752 71.571 120.687 71.571Z" fill="white"/>
<path d="M135.22 83.2742C134.085 83.2742 132.977 83.1259 131.895 82.8292C130.812 82.5324 129.948 82.1572 129.303 81.7033L130.559 79.2161C131.188 79.635 131.938 79.9753 132.811 80.2372C133.701 80.4815 134.574 80.6037 135.429 80.6037C137.384 80.6037 138.361 80.0888 138.361 79.059C138.361 78.5702 138.108 78.2299 137.602 78.0379C137.113 77.8459 136.319 77.6626 135.22 77.4881C134.068 77.3135 133.125 77.1128 132.392 76.8859C131.676 76.659 131.048 76.2662 130.507 75.7077C129.983 75.1317 129.721 74.3375 129.721 73.3252C129.721 71.9986 130.271 70.9426 131.371 70.1572C132.488 69.3542 133.989 68.9528 135.874 68.9528C136.834 68.9528 137.794 69.0662 138.754 69.2932C139.714 69.5026 140.5 69.7906 141.111 70.1572L139.854 72.6444C138.667 71.9462 137.332 71.5972 135.848 71.5972C134.888 71.5972 134.155 71.7455 133.649 72.0422C133.16 72.3215 132.916 72.6968 132.916 73.1681C132.916 73.6917 133.177 74.067 133.701 74.2939C134.242 74.5033 135.071 74.7041 136.188 74.8961C137.305 75.0706 138.222 75.2713 138.937 75.4982C139.653 75.7252 140.264 76.1092 140.77 76.6502C141.294 77.1913 141.556 77.9593 141.556 78.9542C141.556 80.2633 140.988 81.3106 139.854 82.0961C138.719 82.8815 137.175 83.2742 135.22 83.2742Z" fill="white"/>
<path d="M157.517 76.179C157.517 76.4059 157.5 76.7288 157.465 77.1477H146.495C146.687 78.1775 147.184 78.9979 147.987 79.6088C148.807 80.2022 149.82 80.499 151.024 80.499C152.56 80.499 153.826 79.9928 154.821 78.9804L156.575 80.9964C155.946 81.747 155.152 82.3142 154.192 82.6982C153.232 83.0822 152.15 83.2742 150.946 83.2742C149.41 83.2742 148.057 82.9688 146.887 82.3579C145.718 81.747 144.81 80.9004 144.165 79.8182C143.536 78.7186 143.222 77.4793 143.222 76.1004C143.222 74.739 143.527 73.5172 144.138 72.435C144.767 71.3353 145.631 70.4801 146.73 69.8692C147.83 69.2582 149.069 68.9528 150.448 68.9528C151.81 68.9528 153.023 69.2582 154.087 69.8692C155.17 70.4626 156.007 71.3092 156.601 72.4088C157.212 73.491 157.517 74.7477 157.517 76.179ZM150.448 71.571C149.401 71.571 148.511 71.8852 147.778 72.5135C147.062 73.1244 146.626 73.9448 146.469 74.9746H154.402C154.262 73.9622 153.834 73.1419 153.119 72.5135C152.403 71.8852 151.513 71.571 150.448 71.571Z" fill="white"/>
<path d="M167.076 83.2742C165.627 83.2742 164.326 82.9688 163.174 82.3579C162.022 81.747 161.124 80.9004 160.478 79.8182C159.832 78.7186 159.509 77.4793 159.509 76.1004C159.509 74.7215 159.832 73.491 160.478 72.4088C161.124 71.3266 162.014 70.4801 163.148 69.8692C164.3 69.2582 165.609 68.9528 167.076 68.9528C168.454 68.9528 169.659 69.2321 170.689 69.7906C171.736 70.3492 172.521 71.1521 173.045 72.1993L170.532 73.6655C170.13 73.0197 169.624 72.5397 169.013 72.2255C168.42 71.8939 167.765 71.7281 167.049 71.7281C165.828 71.7281 164.815 72.1295 164.012 72.9324C163.209 73.7179 162.808 74.7739 162.808 76.1004C162.808 77.427 163.201 78.4917 163.986 79.2946C164.789 80.0801 165.81 80.4728 167.049 80.4728C167.765 80.4728 168.42 80.3157 169.013 80.0015C169.624 79.6699 170.13 79.1812 170.532 78.5353L173.045 80.0015C172.504 81.0488 171.71 81.8604 170.662 82.4364C169.633 82.995 168.437 83.2742 167.076 83.2742Z" fill="white"/>
<path d="M189.41 69.1099V83.091H186.294V81.3106C185.771 81.939 185.116 82.4277 184.331 82.7768C183.545 83.1084 182.699 83.2742 181.791 83.2742C179.923 83.2742 178.449 82.7593 177.366 81.7295C176.302 80.6822 175.769 79.1375 175.769 77.0953V69.1099H179.042V76.6502C179.042 77.907 179.321 78.8495 179.88 79.4779C180.456 80.0888 181.267 80.3942 182.315 80.3942C183.484 80.3942 184.409 80.0364 185.09 79.3208C185.788 78.5877 186.137 77.5404 186.137 76.179V69.1099H189.41Z" fill="white"/>
<path d="M196.811 71.1521C197.753 69.6859 199.411 68.9528 201.785 68.9528V72.0684C201.506 72.0161 201.253 71.9899 201.026 71.9899C199.752 71.9899 198.757 72.3652 198.041 73.1157C197.326 73.8488 196.968 74.9135 196.968 76.3099V83.091H193.695V69.1099H196.811V71.1521Z" fill="white"/>
<path d="M212.311 68.9528C213.673 68.9528 214.886 69.2495 215.951 69.843C217.033 70.4364 217.879 71.2742 218.49 72.3564C219.101 73.4386 219.407 74.6866 219.407 76.1004C219.407 77.5142 219.101 78.771 218.49 79.8706C217.879 80.9528 217.033 81.7906 215.951 82.3841C214.886 82.9775 213.673 83.2742 212.311 83.2742C211.351 83.2742 210.47 83.1084 209.667 82.7768C208.882 82.4452 208.218 81.9477 207.677 81.2844V83.091H204.562V63.6641H207.834V70.8117C208.393 70.2008 209.047 69.7382 209.798 69.4241C210.566 69.1099 211.404 68.9528 212.311 68.9528ZM211.945 80.4728C213.149 80.4728 214.135 80.0713 214.903 79.2684C215.689 78.4655 216.082 77.4095 216.082 76.1004C216.082 74.7913 215.689 73.7353 214.903 72.9324C214.135 72.1295 213.149 71.7281 211.945 71.7281C211.159 71.7281 210.452 71.9113 209.824 72.2779C209.196 72.627 208.698 73.1332 208.332 73.7964C207.965 74.4597 207.782 75.2277 207.782 76.1004C207.782 76.9732 207.965 77.7412 208.332 78.4044C208.698 79.0677 209.196 79.5826 209.824 79.9492C210.452 80.2982 211.159 80.4728 211.945 80.4728Z" fill="white"/>
<defs>
<filter id="filter0_d_143_465" x="0" y="0" width="265" height="150" filterUnits="userSpaceOnUse" color-interpolation-filters="sRGB">
<feFlood flood-opacity="0" result="BackgroundImageFix"/>
<feColorMatrix in="SourceAlpha" type="matrix" values="0 0 0 0 0 0 0 0 0 0 0 0 0 0 0 0 0 0 127 0" result="hardAlpha"/>
<feOffset dy="1"/>
<feGaussianBlur stdDeviation="1"/>
<feColorMatrix type="matrix" values="0 0 0 0 0.333333 0 0 0 0 0.411765 0 0 0 0 0.529412 0 0 0 0.1 0"/>
<feBlend mode="normal" in2="BackgroundImageFix" result="effect1_dropShadow_143_465"/>
<feBlend mode="normal" in="SourceGraphic" in2="effect1_dropShadow_143_465" result="shape"/>
</filter>
<clipPath id="clip0_143_465">
<rect width="48" height="43.6364" fill="white" transform="translate(45 52)"/>
</clipPath>
</defs>
</svg>
