<svg width="265" height="150" viewBox="0 0 265 150" fill="none" xmlns="http://www.w3.org/2000/svg">
<g filter="url(#filter0_d_143_466)">
<rect x="2" y="1" width="261" height="146" rx="6" fill="#333F51"/>
</g>
<g clip-path="url(#clip0_143_466)">
<path fill-rule="evenodd" clip-rule="evenodd" d="M67.709 97.0855C72.9038 96.479 77.7421 94.1371 81.4403 90.4388C85.1386 86.7406 87.4805 81.9024 88.087 76.7075H79.3563C78.8056 79.5906 77.4003 82.2413 75.3231 84.3151C73.2459 86.3889 70.5929 87.7899 67.709 88.3359V97.0855Z" fill="#F7936F"/>
<path fill-rule="evenodd" clip-rule="evenodd" d="M75.4648 53.2461L75.5197 53.2101C81.1691 49.964 85.7372 49.0095 87.864 51.1382C93.8808 57.1531 76.9136 75.8626 71.8873 80.8889C68.8645 83.9205 65.6612 86.7665 62.2949 89.4113V97.0796C59.5884 96.7723 56.9587 95.9834 54.53 94.7501L54.4751 94.7861C48.8257 98.0322 44.2596 98.9867 42.1309 96.8693C39.2144 93.9528 42.6271 87.239 44.2406 84.4683C43.015 82.0366 42.2265 79.4083 41.9112 76.7035H50.6608C51.0434 78.7342 51.8528 80.6607 53.0353 82.3554C54.2178 84.0501 55.7465 85.4746 57.5204 86.5345C56.511 87.2675 55.4845 87.9644 54.4202 88.6178C52.8615 89.6083 51.248 90.5438 49.5776 91.3866C48.2703 90.2289 47.101 88.9243 46.0929 87.4985C44.3316 90.8923 43.7445 93.3865 44.6801 94.3164C48.697 98.2935 66.7644 81.6976 69.7359 78.7261C72.8994 75.5668 75.8586 72.2091 78.5953 68.6735C77.6935 66.3688 76.2204 64.3313 74.3144 62.7527C72.4084 61.174 70.1323 60.1061 67.7 59.6492V50.8996C70.407 51.2041 73.0371 51.9932 75.4648 53.229V53.2461ZM83.9019 60.492C85.6632 57.0982 86.2503 54.604 85.3147 53.6741C84.3792 52.7442 81.9058 53.3446 78.5101 55.1059C80.5977 56.5873 82.4204 58.4102 83.9019 60.4977V60.492Z" fill="#F16063"/>
<path fill-rule="evenodd" clip-rule="evenodd" d="M62.2989 50.9165C57.1039 51.5234 52.2657 53.8657 48.5675 57.5643C44.8692 61.2629 42.5273 66.1013 41.9209 71.2964H50.6706C51.2138 68.413 52.6142 65.7605 54.6888 63.6856C56.7633 61.6107 59.4156 60.2099 62.2989 59.6662V50.9165Z" fill="#F7936F"/>
</g>
<path d="M128.614 79.5566C128.614 80.568 128.42 81.5225 128.034 82.4202C127.659 83.3066 127.136 84.085 126.466 84.7555C125.807 85.4146 125.028 85.9373 124.131 86.3236C123.244 86.6986 122.295 86.8861 121.284 86.8861C120.375 86.8861 119.5 86.7271 118.659 86.4089C117.83 86.0907 117.08 85.6248 116.409 85.0111C115.739 85.6248 114.983 86.0907 114.142 86.4089C113.301 86.7271 112.426 86.8861 111.517 86.8861C110.506 86.8861 109.551 86.6986 108.653 86.3236C107.767 85.9373 106.989 85.4146 106.318 84.7555C105.659 84.085 105.136 83.3066 104.75 82.4202C104.375 81.5225 104.188 80.568 104.188 79.5566V62.1021H109.08V79.5566C109.08 79.8975 109.142 80.2214 109.267 80.5282C109.392 80.8236 109.563 81.085 109.778 81.3123C110.006 81.5282 110.267 81.6986 110.563 81.8236C110.858 81.9486 111.176 82.0111 111.517 82.0111C111.858 82.0111 112.176 81.9486 112.472 81.8236C112.767 81.6986 113.023 81.5282 113.239 81.3123C113.466 81.085 113.642 80.8236 113.767 80.5282C113.892 80.2214 113.955 79.8975 113.955 79.5566V62.1021H118.847V79.5566C118.847 79.8975 118.909 80.2214 119.034 80.5282C119.159 80.8236 119.33 81.085 119.545 81.3123C119.773 81.5282 120.034 81.6986 120.33 81.8236C120.625 81.9486 120.943 82.0111 121.284 82.0111C121.625 82.0111 121.943 81.9486 122.239 81.8236C122.534 81.6986 122.79 81.5282 123.006 81.3123C123.233 81.085 123.409 80.8236 123.534 80.5282C123.67 80.2214 123.739 79.8975 123.739 79.5566V62.1021H128.614V79.5566Z" fill="white"/>
<path d="M137.989 63.3293C137.989 63.7611 137.903 64.1646 137.733 64.5396C137.574 64.9146 137.352 65.2441 137.068 65.5282C136.784 65.8009 136.449 66.0225 136.063 66.193C135.688 66.3521 135.284 66.4316 134.852 66.4316C134.42 66.4316 134.011 66.3521 133.625 66.193C133.25 66.0225 132.92 65.8009 132.636 65.5282C132.364 65.2441 132.142 64.9146 131.972 64.5396C131.813 64.1646 131.733 63.7611 131.733 63.3293C131.733 62.9089 131.813 62.5111 131.972 62.1361C132.142 61.7498 132.364 61.4202 132.636 61.1475C132.92 60.8634 133.25 60.6418 133.625 60.4827C134.011 60.3123 134.42 60.2271 134.852 60.2271C135.284 60.2271 135.688 60.3123 136.063 60.4827C136.449 60.6418 136.784 60.8634 137.068 61.1475C137.352 61.4202 137.574 61.7498 137.733 62.1361C137.903 62.5111 137.989 62.9089 137.989 63.3293ZM137.188 86.5452H132.5V68.2896H137.188V86.5452Z" fill="white"/>
<path d="M150.773 86.5452H140.136V81.9089H150.773C151.091 81.9089 151.364 81.7952 151.591 81.568C151.818 81.3407 151.932 81.068 151.932 80.7498C151.932 80.4202 151.818 80.2043 151.591 80.1021C151.364 79.9998 151.091 79.9486 150.773 79.9486H145.932C145.125 79.9486 144.369 79.7952 143.665 79.4884C142.96 79.1816 142.347 78.7668 141.824 78.2441C141.301 77.71 140.886 77.0907 140.58 76.3861C140.284 75.6816 140.136 74.9259 140.136 74.1191C140.136 73.3123 140.284 72.5566 140.58 71.8521C140.886 71.1475 141.301 70.5339 141.824 70.0111C142.347 69.4884 142.96 69.0793 143.665 68.7839C144.369 68.4771 145.125 68.3236 145.932 68.3236H155.358V72.96H145.932C145.614 72.96 145.341 73.0736 145.114 73.3009C144.886 73.5282 144.773 73.8009 144.773 74.1191C144.773 74.4486 144.886 74.7327 145.114 74.9714C145.341 75.1986 145.614 75.3123 145.932 75.3123H150.773C151.568 75.3123 152.318 75.4486 153.023 75.7214C153.727 75.9827 154.341 76.3521 154.864 76.8293C155.386 77.3066 155.801 77.8805 156.108 78.5509C156.415 79.2214 156.568 79.9543 156.568 80.7498C156.568 81.5566 156.415 82.3123 156.108 83.0168C155.801 83.71 155.386 84.3236 154.864 84.8577C154.341 85.3805 153.727 85.7952 153.023 86.1021C152.318 86.3975 151.568 86.5452 150.773 86.5452Z" fill="white"/>
<path d="M163.71 86.5452H159.057V61.0282H163.71V69.0907C164.267 68.6702 164.841 68.3748 165.432 68.2043C166.023 68.0225 166.625 67.9316 167.239 67.9316C168.364 67.9316 169.42 68.1475 170.409 68.5793C171.398 68.9998 172.256 69.585 172.983 70.335C173.722 71.0736 174.301 71.943 174.722 72.943C175.153 73.9316 175.369 74.9884 175.369 76.1134V86.5452H170.682V76.1134H170.716C170.716 75.6361 170.625 75.1873 170.443 74.7668C170.261 74.335 170.011 73.96 169.693 73.6418C169.375 73.3236 169.006 73.0736 168.585 72.8918C168.165 72.71 167.716 72.6191 167.239 72.6191C166.75 72.6191 166.29 72.71 165.858 72.8918C165.426 73.0736 165.051 73.3236 164.733 73.6418C164.415 73.96 164.165 74.335 163.983 74.7668C163.801 75.1873 163.71 75.6361 163.71 76.1134V86.5452Z" fill="white"/>
<path d="M185.955 82.0793C186.136 82.1361 186.318 82.1759 186.5 82.1986C186.682 82.21 186.864 82.2157 187.045 82.2157C187.5 82.2157 187.938 82.1532 188.358 82.0282C188.778 81.9032 189.17 81.7271 189.534 81.4998C189.909 81.2611 190.239 80.9771 190.523 80.6475C190.818 80.3066 191.057 79.9316 191.239 79.5225L194.648 82.9486C194.216 83.5623 193.716 84.1134 193.148 84.6021C192.591 85.0907 191.983 85.5055 191.324 85.8464C190.676 86.1873 189.989 86.443 189.261 86.6134C188.545 86.7952 187.807 86.8861 187.045 86.8861C185.761 86.8861 184.551 86.6475 183.415 86.1702C182.29 85.693 181.301 85.0282 180.449 84.1759C179.608 83.3236 178.943 82.3123 178.455 81.1418C177.966 79.96 177.722 78.6646 177.722 77.2555C177.722 75.8123 177.966 74.4941 178.455 73.3009C178.943 72.1077 179.608 71.0907 180.449 70.2498C181.301 69.4089 182.29 68.7555 183.415 68.2896C184.551 67.8236 185.761 67.5907 187.045 67.5907C187.807 67.5907 188.551 67.6816 189.278 67.8634C190.006 68.0452 190.693 68.3066 191.341 68.6475C192 68.9884 192.614 69.4089 193.182 69.9089C193.75 70.3975 194.25 70.9486 194.682 71.5623L185.955 82.0793ZM188.341 72.4827C188.125 72.4032 187.909 72.3521 187.693 72.3293C187.489 72.3066 187.273 72.2952 187.045 72.2952C186.409 72.2952 185.807 72.4146 185.239 72.6532C184.682 72.8805 184.193 73.21 183.773 73.6418C183.364 74.0736 183.04 74.5964 182.801 75.21C182.563 75.8123 182.443 76.4941 182.443 77.2555C182.443 77.4259 182.449 77.6191 182.46 77.835C182.483 78.0509 182.511 78.2725 182.545 78.4998C182.591 78.7157 182.642 78.9259 182.699 79.1305C182.756 79.335 182.83 79.5168 182.92 79.6759L188.341 72.4827Z" fill="white"/>
<path d="M201.722 86.5452H197.034V61.0282H201.722V86.5452Z" fill="white"/>
<path d="M209.972 93.4998H205.284V68.2896H206.409L208.267 70.4884C208.688 70.0907 209.148 69.7157 209.648 69.3634C210.148 69.0111 210.665 68.71 211.199 68.46C211.744 68.1986 212.307 67.9941 212.886 67.8464C213.466 67.6986 214.051 67.6248 214.642 67.6248C215.926 67.6248 217.131 67.8577 218.256 68.3236C219.392 68.7782 220.381 69.4259 221.222 70.2668C222.074 71.1077 222.744 72.1248 223.233 73.318C223.722 74.4998 223.966 75.8123 223.966 77.2555C223.966 78.7555 223.722 80.1077 223.233 81.3123C222.744 82.5055 222.074 83.5225 221.222 84.3634C220.381 85.193 219.392 85.8293 218.256 86.2725C217.131 86.7157 215.926 86.9373 214.642 86.9373C214.233 86.9373 213.824 86.8918 213.415 86.8009C213.017 86.71 212.619 86.5907 212.222 86.443C211.835 86.2839 211.449 86.1077 211.063 85.9146C210.688 85.7214 210.324 85.5225 209.972 85.318V93.4998ZM219.295 77.2555C219.295 76.4827 219.17 75.7896 218.92 75.1759C218.682 74.5623 218.352 74.0452 217.932 73.6248C217.511 73.193 217.017 72.8634 216.449 72.6361C215.881 72.4089 215.278 72.2952 214.642 72.2952C214.006 72.2952 213.403 72.4089 212.835 72.6361C212.278 72.8634 211.79 73.193 211.369 73.6248C210.949 74.0452 210.614 74.5623 210.364 75.1759C210.125 75.7896 210.006 76.4827 210.006 77.2555C210.006 77.9941 210.125 78.6702 210.364 79.2839C210.614 79.8975 210.949 80.4202 211.369 80.8521C211.79 81.2839 212.278 81.6191 212.835 81.8577C213.403 82.0964 214.006 82.2157 214.642 82.2157C215.278 82.2157 215.881 82.0964 216.449 81.8577C217.017 81.6191 217.511 81.2839 217.932 80.8521C218.352 80.4202 218.682 79.8975 218.92 79.2839C219.17 78.6702 219.295 77.9941 219.295 77.2555Z" fill="white"/>
<defs>
<filter id="filter0_d_143_466" x="0" y="0" width="265" height="150" filterUnits="userSpaceOnUse" color-interpolation-filters="sRGB">
<feFlood flood-opacity="0" result="BackgroundImageFix"/>
<feColorMatrix in="SourceAlpha" type="matrix" values="0 0 0 0 0 0 0 0 0 0 0 0 0 0 0 0 0 0 127 0" result="hardAlpha"/>
<feOffset dy="1"/>
<feGaussianBlur stdDeviation="1"/>
<feColorMatrix type="matrix" values="0 0 0 0 0.333333 0 0 0 0 0.411765 0 0 0 0 0.529412 0 0 0 0.1 0"/>
<feBlend mode="normal" in2="BackgroundImageFix" result="effect1_dropShadow_143_466"/>
<feBlend mode="normal" in="SourceGraphic" in2="effect1_dropShadow_143_466" result="shape"/>
</filter>
<clipPath id="clip0_143_466">
<rect width="48.142" height="48" fill="white" transform="translate(41 50)"/>
</clipPath>
</defs>
</svg>
