<svg width="265" height="150" viewBox="0 0 265 150" fill="none" xmlns="http://www.w3.org/2000/svg">
<g filter="url(#filter0_d_143_468)">
<rect x="2" y="1" width="261" height="146" rx="6" fill="#333F51"/>
</g>
<path d="M107.481 66.5482C107.481 74.4028 115.925 75.4631 115.925 81.1184C115.925 83.082 115.061 83.789 113.686 83.789C112.312 83.789 111.448 83.082 111.448 81.1184V79.1548H107.363V80.8435C107.363 85.2421 109.563 87.7555 113.804 87.7555C118.045 87.7555 120.245 85.2421 120.245 80.8435C120.245 72.989 111.801 71.9286 111.801 66.2733C111.801 64.3097 112.587 63.5635 113.961 63.5635C115.336 63.5635 116.121 64.3097 116.121 66.2733V67.4122H120.205V66.5482C120.205 62.1497 118.045 59.6362 113.843 59.6362C109.641 59.6362 107.481 62.1497 107.481 66.5482Z" fill="white"/>
<path d="M126.496 87.4413H130.816V78.33L136.275 59.9504H132.152L128.853 72.4784L125.554 59.9504H121.038L126.496 78.33V87.4413Z" fill="white"/>
<path d="M143.992 59.9504H137.983V87.4413H141.753V68.0013L144.974 87.4413H149.058L152.043 67.7264V87.4413H156.127V59.9504H150.118L147.173 79.469L143.992 59.9504Z" fill="white"/>
<path d="M158.013 63.8777H162.529V87.4413H166.849V63.8777H171.366V59.9504H158.013V63.8777Z" fill="white"/>
<path d="M186.699 87.4413C186.267 86.4202 186.228 85.4384 186.228 84.1031V79.8617C186.228 76.9948 185.521 74.9133 183.361 74.01C185.286 73.1068 186.189 71.261 186.189 68.4333V66.2733C186.189 62.0319 184.264 59.9504 179.787 59.9504H173.268V87.4413H177.588V76.2486H179.081C181.044 76.2486 181.908 77.1911 181.908 79.7439V84.0639C181.908 86.3024 182.065 86.7344 182.301 87.4413H186.699ZM179.67 63.8777C181.201 63.8777 181.869 64.7417 181.869 66.7053V69.4151C181.869 71.6144 180.887 72.3213 179.277 72.3213H177.588V63.8777H179.67Z" fill="white"/>
<path d="M189.069 87.4413H193.389V59.9504H189.069V87.4413Z" fill="white"/>
<path d="M204.992 77.1911V81.1184C204.992 83.082 204.128 83.789 202.753 83.789C201.379 83.789 200.515 83.082 200.515 81.1184V66.2733C200.515 64.3097 201.379 63.5635 202.753 63.5635C204.128 63.5635 204.992 64.3097 204.992 66.2733V69.2188H209.076V66.5482C209.076 62.1497 206.877 59.6362 202.635 59.6362C198.394 59.6362 196.195 62.1497 196.195 66.5482V80.8435C196.195 85.2421 198.394 87.7555 202.635 87.7555C206.877 87.7555 209.076 85.2421 209.076 80.8435V77.1911H204.992Z" fill="white"/>
<g clip-path="url(#clip0_143_468)">
<path fill-rule="evenodd" clip-rule="evenodd" d="M69.8435 65.8349L67.4829 69.9161L65.2367 66.0199L67.5856 61.9387H83.9926L87.4763 55.8962H64.099L59.4923 63.8868C62.948 69.8569 66.3985 75.827 69.8435 81.7971H76.8109C75.061 78.768 73.312 75.7394 71.564 72.7113L71.0796 71.873H87.0476L93.9151 83.7642L87.0476 95.6364H61.8529L55.0558 83.6498L58.4691 77.7218L60.7298 81.6165L59.5069 83.7496L64.1137 91.7402H84.7883L89.4097 83.7496L84.803 75.759H77.8356C79.3134 78.333 80.7922 80.9064 82.272 83.4794L82.4394 83.7452L81.3163 85.6933H67.5974C63.4447 78.5126 59.2975 71.3372 55.1556 64.1672L55 63.8824L61.8529 51.9912H94.2411L86.2563 65.8349H69.8435Z" fill="#7F46F0"/>
</g>
<defs>
<filter id="filter0_d_143_468" x="0" y="0" width="265" height="150" filterUnits="userSpaceOnUse" color-interpolation-filters="sRGB">
<feFlood flood-opacity="0" result="BackgroundImageFix"/>
<feColorMatrix in="SourceAlpha" type="matrix" values="0 0 0 0 0 0 0 0 0 0 0 0 0 0 0 0 0 0 127 0" result="hardAlpha"/>
<feOffset dy="1"/>
<feGaussianBlur stdDeviation="1"/>
<feColorMatrix type="matrix" values="0 0 0 0 0.333333 0 0 0 0 0.411765 0 0 0 0 0.529412 0 0 0 0.1 0"/>
<feBlend mode="normal" in2="BackgroundImageFix" result="effect1_dropShadow_143_468"/>
<feBlend mode="normal" in="SourceGraphic" in2="effect1_dropShadow_143_468" result="shape"/>
</filter>
<clipPath id="clip0_143_468">
<rect width="39.2425" height="43.6364" fill="white" transform="translate(55 52)"/>
</clipPath>
</defs>
</svg>
