<svg width="71" height="71" viewBox="0 0 71 71" fill="none" xmlns="http://www.w3.org/2000/svg">
<g clip-path="url(#clip0_66_201)">
<g clip-path="url(#clip1_66_201)">
<g clip-path="url(#clip2_66_201)">
<path fill-rule="evenodd" clip-rule="evenodd" d="M0.5 55.6541C16.655 50.5483 20.1652 54.0581 15.0591 70.2124C24.4937 54.0581 46.5065 54.0581 55.941 70.2124C50.8384 54.0581 54.3489 50.5483 70.5 55.6541C54.3489 46.2199 54.3489 24.2085 70.5 14.7745C54.3489 19.8765 50.8384 16.3665 55.941 0.212402C46.5065 16.3665 24.4937 16.3665 15.0591 0.212402C20.1652 16.3665 16.655 19.8765 0.5 14.7745C16.655 24.2085 16.655 46.2199 0.5 55.6541ZM35.5 48.1624C42.6522 48.1624 48.45 42.3646 48.45 35.2124C48.45 28.0603 42.6522 22.2624 35.5 22.2624C28.3479 22.2624 22.55 28.0603 22.55 35.2124C22.55 42.3646 28.3479 48.1624 35.5 48.1624Z" fill="black"/>
</g>
</g>
</g>
<defs>
<clipPath id="clip0_66_201">
<rect width="70" height="70" fill="white" transform="translate(0.5 0.212402)"/>
</clipPath>
<clipPath id="clip1_66_201">
<rect width="70" height="70" fill="white" transform="translate(0.5 0.212402)"/>
</clipPath>
<clipPath id="clip2_66_201">
<rect width="70" height="70" fill="white" transform="translate(0.5 0.212402)"/>
</clipPath>
</defs>
</svg>
